<svg xmlns="http://www.w3.org/2000/svg" xmlns:xlink="http://www.w3.org/1999/xlink" width="1366.222" height="618" viewBox="0 0 1366.222 618"><defs><style>.a{fill:#fffdef;}.b{clip-path:url(#a);}.c{fill:url(#b);}.d{opacity:0.56;}.e{fill:url(#c);}.f{opacity:0.44;}.g{fill:url(#d);}.h{fill:url(#e);}.i{opacity:0.46;}.j{fill:url(#f);}.k{fill:url(#g);}.l{opacity:0.64;fill:url(#h);}.m{fill:#fff;}.n{fill:url(#i);}.o,.y{opacity:0.2;}.o{fill:url(#j);}.p{fill:url(#k);}.q{fill:url(#l);}.r{fill:#ccc;opacity:0.16;}.s{fill:#a09eef;opacity:0.1;}.t{fill:#525189;}.u{fill:url(#m);}.v{fill:url(#n);}.w{fill:url(#o);}.x{fill:url(#p);}.y{fill:url(#q);}.z{fill:url(#r);}.aa{fill:url(#s);}.ab{fill:url(#t);}.ac{fill:#525eb5;}.ad{fill:#201656;}.ae{fill:#b5b5e5;}</style><clipPath id="a"><rect class="a" width="1366" height="618" transform="translate(0.222 218)"/></clipPath><linearGradient id="b" x1="0.057" y1="0.471" x2="1.029" y2="0.731" gradientUnits="objectBoundingBox"><stop offset="0" stop-color="#fc7e66"/><stop offset="1" stop-color="#fedd00"/></linearGradient><linearGradient id="c" x1="0.394" y1="1.468" x2="0.611" y2="-0.385" gradientUnits="objectBoundingBox"><stop offset="0" stop-color="#e58999"/><stop offset="1" stop-color="#ffdbb6"/></linearGradient><linearGradient id="d" x1="-1.569" y1="0.014" x2="-1.407" y2="-2.288" xlink:href="#c"/><linearGradient id="e" x1="-2.171" y1="0.279" x2="-2.032" y2="-1.696" xlink:href="#c"/><linearGradient id="f" x1="0.506" y1="0.217" x2="0.463" y2="2.075" gradientUnits="objectBoundingBox"><stop offset="0" stop-color="#a2506d"/><stop offset="1" stop-color="#ffdbb6"/></linearGradient><linearGradient id="g" x1="0.191" y1="0.314" x2="1.529" y2="1.543" xlink:href="#f"/><linearGradient id="h" y1="0.5" x2="1" y2="0.5" gradientUnits="objectBoundingBox"><stop offset="0" stop-color="#7289d6"/><stop offset="1" stop-color="#c9def2"/></linearGradient><linearGradient id="i" x1="0.99" y1="-0.741" x2="-0.034" y2="-0.741" gradientUnits="objectBoundingBox"><stop offset="0" stop-color="#d5deff"/><stop offset="1" stop-color="#281b9a"/></linearGradient><linearGradient id="j" x1="-0.381" y1="-1.397" x2="0.857" y2="1.406" xlink:href="#i"/><linearGradient id="k" x1="0.276" y1="1.924" x2="0.681" y2="-0.556" xlink:href="#c"/><linearGradient id="l" x1="-0.155" y1="0.283" x2="1.222" y2="0.676" xlink:href="#i"/><linearGradient id="m" x1="0.034" y1="-1.433" x2="0.97" y2="0.262" xlink:href="#i"/><linearGradient id="n" x1="-0.121" y1="-2.225" x2="0.871" y2="-0.166" xlink:href="#i"/><linearGradient id="o" x1="-0.012" y1="-0.772" x2="0.994" y2="-0.772" xlink:href="#i"/><linearGradient id="p" x1="0.994" y1="-1.577" x2="-0.015" y2="-1.577" xlink:href="#i"/><linearGradient id="q" x1="0" y1="0.5" x2="1" y2="0.5" xlink:href="#i"/><linearGradient id="r" x1="2.022" y1="-2.605" x2="0.313" y2="-4.394" xlink:href="#i"/><linearGradient id="s" x1="-0.186" y1="-2.755" x2="1.133" y2="-1.368" xlink:href="#i"/><linearGradient id="t" x1="1.151" y1="-0.117" x2="0.119" y2="-3.618" xlink:href="#i"/></defs><g transform="translate(0 -218)"><g transform="translate(0 0)"><rect class="a" width="1366" height="618" transform="translate(0.222 218)"/><g class="b"><path class="c" d="M309.638,0a155.62,155.62,0,0,1,41.756,37.393c30.538,39.471,43.626,95.062,86.981,119.908,47.053,27.006,106.467,4.8,160.252,11.82,63.548,8.31,113.385,56.09,163.139,96.5,15.788,12.818,32.7,25.428,52.517,29.936,49.172,11.2,102.416-29.852,148.535-9.473,31.161,13.794,46.015,50.938,75.639,67.869,28.274,16.183,65.875,11.488,92.964,28.523a58.167,58.167,0,0,1,23.308,70.2c-7.167,18.925-23.7,30.663-41.091,38.91-41.008,19.465-87.916,21.73-131.022,35.815s-86.441,46.991-88.332,92.341c-.5,12.132,2.077,24.617-1.413,36.272-7.645,25.822-39.014,34.734-65.522,39.471L695.933,719.2c-33.779,6.087-68.2,12.464-98.428,28.668-25.573,13.794-46.991,34.194-71.92,49.276-27.733,16.785-58.895,26.549-90.492,34.34H67.744A67.744,67.744,0,0,1,0,763.74V68.845A68.845,68.845,0,0,1,68.845,0H324.616"/></g><g class="d" transform="translate(254.761 496.841)"><path class="e" d="M133.221,288.827c-7.728-1.641-11.53-14.4-10.387-22.208s7.853-14.147,15.435-16.412a33.384,33.384,0,0,1,23.1,2.368c5.754,2.617,11.114,6.481,17.346,7.416,10.99,1.641,20.774-6.024,30.268-11.924,7.209-4.55,15.207-8.31,23.724-8.85s17.637,2.888,22.187,10.1c1.89,2.971,3.033,6.565,5.775,8.767,6.232,4.965,14.978-.229,22.581-2.555a21.647,21.647,0,0,1,15.29.561,14.189,14.189,0,0,1,8.31,12.215,16.889,16.889,0,0,1-6.066,11.966c-11.135,10.221-28.211,9.93-43.106,7.292s-30.309-6.9-44.81-2.618c-4.653,1.392-9.058,3.635-13.815,4.716-10.034,2.244-20.483-.976-30.746-.415-12.028.665-25.241,6.232-35.316-.415" transform="translate(-122.634 -239.163)"/></g><g class="f" transform="translate(29.502 590.858)"><path class="g" d="M28.678,322.727c-10.99-1.787-16.058-12.984-14.043-19.694s11.571-11.883,22.457-13.482a75.887,75.887,0,0,1,32.782,3.116C78,295.2,85.516,298.8,94.407,299.876c15.6,1.932,29.894-4.155,43.459-8.912a105.076,105.076,0,0,1,34.049-6.544c12.153,0,25.054,3.3,31.348,9.743,2.618,2.68,4.155,5.837,8,7.853,8.7,4.591,21.335.5,32.241-1.163a49.859,49.859,0,0,1,21.771,1.2c6.689,2.077,11.758,6.44,11.654,10.948-.1,3.989-4.155,7.541-8.974,10.075-16.142,8.31-40.489,7.292-61.637,4.321s-42.961-7.375-63.735-4.383c-6.689,1-13.025,2.742-19.839,3.428-14.376,1.5-29.084-1.766-43.813-1.766-17.139,0-36.126,4.155-50.273-2.077" transform="translate(-14.201 -284.42)"/></g><g class="f" transform="translate(531.052 641.92)"><path class="h" d="M270.108,347.224c-10.99-1.786-16.058-13-14.043-19.694s11.571-11.883,22.436-13.5a76.324,76.324,0,0,1,32.885,3.137c8.123,2.535,15.643,6.108,24.513,7.209,15.622,1.932,29.915-4.155,43.48-8.912A105.076,105.076,0,0,1,413.429,309c12.132,0,25.054,3.324,31.348,9.764,2.6,2.659,4.155,5.817,7.977,7.853,8.725,4.57,21.356.5,32.262-1.163a49.484,49.484,0,0,1,21.771,1.2c6.668,2.077,11.758,6.419,11.654,10.948-.1,3.968-4.155,7.52-8.974,10.055-16.162,8.31-40.509,7.292-61.637,4.342s-43.023-7.4-63.8-4.342c-6.689.976-13.046,2.721-19.839,3.428-14.376,1.475-29.084-1.786-43.813-1.766-17.159,0-36.126,4.155-50.273-2.077" transform="translate(-255.631 -309)"/></g><g class="i" transform="translate(0 659.405)"><path class="j" d="M523.3,404.384l-8.31-8.6c-17.014-17.492-25.137-42.691-43.979-58.168-21.937-18.011-56.755-17.824-78.505.415-9.224,7.77-16.017,18.074-25.074,26.009-18.7,16.391-45.7,20.9-70.279,16.806S250,365.017,228.806,351.992c-15.518-9.535-30.663-19.9-47.469-26.861S145.5,314.744,128.031,319.9C91.676,330.47,73.457,372.641,39.18,388.617A68.908,68.908,0,0,1,0,393.872v30.164c0,30,27.006,63.361,63.444,65.085l240.066.374a6.332,6.332,0,0,0,1.246-.125c5.983-1.2,52.953-11.384,85.319-39.741,34.61-30.33,80.624-35.69,80.624-35.69Z" transform="translate(0 -317.417)"/></g><g class="i" transform="translate(0 677.456)"><path class="k" d="M486.53,396c-36.812-4.861-67.371-29.562-99.487-48.2s-73.624-31.39-105.346-12.091a62.53,62.53,0,0,0-27.733,37.393c-1.911,7.5-2.431,15.352-4.944,22.685-9.743,28.149-46.679,38.328-75.161,29.624s-50.627-30.6-72.709-50.606-47.22-39.7-76.864-42.151A55.446,55.446,0,0,0,0,335.712V411.87a68.264,68.264,0,0,0,68.264,68.264H344.85l151.256-80.147Z" transform="translate(0 -326.106)"/></g><path class="l" d="M146.1,446.895s33.986-7.873,61.512-22.478a224.363,224.363,0,0,0,23.475-16.038,167.565,167.565,0,0,1,71.525-35.108l51.707-9.39s32.034-7.728,98.739-6.855c0,0-18.3,7.832-45.994,28.045a281.886,281.886,0,0,1-62.052,39.637,307.9,307.9,0,0,1-50.44,17.783l-16.91,4.4Z" transform="translate(157.41 384.59)"/><path class="m" d="M173.07,254.18a57.667,57.667,0,0,1,7.271,3.365,53.071,53.071,0,0,1,6.814,4.321,41.361,41.361,0,0,1,6.087,5.381,22.436,22.436,0,0,1,4.508,6.959l-1.6-.312a28.174,28.174,0,0,1,3.552-2.95,24.312,24.312,0,0,1,3.947-2.327,17.012,17.012,0,0,1,4.363-1.413,11.447,11.447,0,0,1,4.529.125,13.232,13.232,0,0,0-4.342.6,22.584,22.584,0,0,0-3.926,1.849,30.435,30.435,0,0,0-3.552,2.514,32.8,32.8,0,0,0-3.178,2.929l-1,1.08-.6-1.413a23.2,23.2,0,0,0-4.155-6.232,51.076,51.076,0,0,0-5.671-5.318c-2.077-1.662-4.155-3.22-6.232-4.716S175.334,255.593,173.07,254.18Z" transform="translate(186.468 273.857)"/><path class="m" d="M126,270.68a30.3,30.3,0,0,1,4.737,1.953,30.623,30.623,0,0,1,4.4,2.659,24.6,24.6,0,0,1,3.947,3.428A14.707,14.707,0,0,1,142,283.269l-1.6-.332a17.993,17.993,0,0,1,2.327-1.87,14.83,14.83,0,0,1,2.576-1.433,8.309,8.309,0,0,1,5.754-.6,9.639,9.639,0,0,0-5.131,1.766,21.2,21.2,0,0,0-2.077,1.62,23.913,23.913,0,0,0-1.953,1.849l-.956,1.08-.644-1.392a22.248,22.248,0,0,0-6.232-7.209C131.38,274.627,128.68,272.654,126,270.68Z" transform="translate(135.754 291.634)"/><path class="m" d="M143,252.69a22.644,22.644,0,0,1,6.98,2.825,16.41,16.41,0,0,1,3.075,2.327,9.682,9.682,0,0,1,2.368,3.3l-1.558-.332a12.9,12.9,0,0,1,3.906-2.244,6.627,6.627,0,0,1,4.383-.187,9.1,9.1,0,0,0-3.823,1.392,14.7,14.7,0,0,0-1.641,1.163,15.18,15.18,0,0,0-1.5,1.288l-.893.935-.665-1.267a16.805,16.805,0,0,0-4.695-4.882C147.03,255.536,145.077,254.186,143,252.69Z" transform="translate(154.07 272.251)"/><path class="m" d="M402.51,301.59a57.672,57.672,0,0,1,7.271,3.365,54.558,54.558,0,0,1,6.814,4.321,40.2,40.2,0,0,1,6.087,5.38,22.21,22.21,0,0,1,4.508,6.959l-1.6-.332a26.341,26.341,0,0,1,3.552-2.929,24.311,24.311,0,0,1,3.947-2.327,16.244,16.244,0,0,1,4.363-1.413,11.072,11.072,0,0,1,4.529.125,13.233,13.233,0,0,0-4.342.6,21.168,21.168,0,0,0-3.926,1.849,30.424,30.424,0,0,0-3.552,2.514,35.4,35.4,0,0,0-3.178,2.908l-1,1.08-.6-1.392a23.207,23.207,0,0,0-4.155-6.232,49.526,49.526,0,0,0-5.692-5.318c-2.077-1.662-4.155-3.22-6.232-4.736S404.774,303,402.51,301.59Z" transform="translate(433.669 324.937)"/><path class="m" d="M355.39,318.09a30.3,30.3,0,0,1,4.737,1.953,30.614,30.614,0,0,1,4.4,2.659,24.594,24.594,0,0,1,3.947,3.428,14.707,14.707,0,0,1,2.908,4.55l-1.6-.332a19.309,19.309,0,0,1,2.306-1.87,15.842,15.842,0,0,1,2.6-1.433,8.309,8.309,0,0,1,5.754-.6,9.639,9.639,0,0,0-5.09,1.849,18.537,18.537,0,0,0-2.181,1.62,23.921,23.921,0,0,0-1.953,1.849l-.976,1.08-.623-1.392a22.249,22.249,0,0,0-6.232-7.209A95.074,95.074,0,0,0,355.39,318.09Z" transform="translate(382.902 342.714)"/><path class="m" d="M372.43,300.1a22.645,22.645,0,0,1,6.98,2.825,16.412,16.412,0,0,1,3.075,2.327,9.6,9.6,0,0,1,2.368,3.282l-1.558-.312a12.9,12.9,0,0,1,3.905-2.244,6.627,6.627,0,0,1,4.383-.187,8.829,8.829,0,0,0-3.822,1.392,14.7,14.7,0,0,0-1.641,1.163,15.169,15.169,0,0,0-1.5,1.288l-.893.935-.665-1.267a16.8,16.8,0,0,0-4.695-4.882C376.481,302.946,374.466,301.6,372.43,300.1Z" transform="translate(401.261 323.332)"/><path class="m" d="M297.29,172.83a45.141,45.141,0,0,1,11.426,6.025,32.611,32.611,0,0,1,4.944,4.342,17.929,17.929,0,0,1,3.635,5.671l-1.6-.332a22.306,22.306,0,0,1,2.908-2.368,20.551,20.551,0,0,1,3.22-1.849,10.616,10.616,0,0,1,7.209-.914,12.07,12.07,0,0,0-6.606,2.077,26.778,26.778,0,0,0-2.8,2.077,30.191,30.191,0,0,0-2.514,2.348l-.976,1.08-.623-1.392a27.65,27.65,0,0,0-7.915-9.245,120.814,120.814,0,0,0-10.3-7.52Z" transform="translate(320.304 186.209)"/><path class="m" d="M339.25,180a75.49,75.49,0,0,1,11.135,4.84,77.882,77.882,0,0,1,10.387,6.419,59.313,59.313,0,0,1,9.286,8.144,33.925,33.925,0,0,1,6.876,10.678l-3.2-.623a45.851,45.851,0,0,1,5.464-4.466,37.138,37.138,0,0,1,6.066-3.449,26.4,26.4,0,0,1,6.71-2.077,16.62,16.62,0,0,1,6.876.395,21.023,21.023,0,0,0-6.5,1.1,31.78,31.78,0,0,0-5.837,2.888,43.1,43.1,0,0,0-5.256,3.843,45.576,45.576,0,0,0-4.716,4.4l-2.077,2.181-1.2-2.825a35.711,35.711,0,0,0-6.336-9.307,79.965,79.965,0,0,0-8.5-8.019c-1.5-1.246-3.075-2.472-4.612-3.7l-4.7-3.615C345.877,184.487,342.595,182.2,339.25,180Z" transform="translate(365.512 193.934)"/><path class="m" d="M317.7,155.22a62.151,62.151,0,0,1,9.805,4.155,68.56,68.56,0,0,1,9.12,5.547,49.693,49.693,0,0,1,8.143,7.1,29.081,29.081,0,0,1,6.025,9.411l-3.2-.644a39.873,39.873,0,0,1,4.82-3.885,32.8,32.8,0,0,1,5.339-2.992,22.665,22.665,0,0,1,5.9-1.745,13.982,13.982,0,0,1,6.024.457,17.6,17.6,0,0,0-5.651,1.059A27.234,27.234,0,0,0,359,176.243a40.193,40.193,0,0,0-4.55,3.365,44.692,44.692,0,0,0-4.051,3.843l-1.953,2.077L347.2,182.7a31.721,31.721,0,0,0-5.464-8.019,71.317,71.317,0,0,0-7.375-6.98l-3.989-3.241-4.155-3.137Z" transform="translate(342.294 167.236)"/><path class="n" d="M516.29,236.47l8.254,53.992,65.174,60.893s18.6,32.724-48.872.8-72.88-34.574-72.88-34.574L401.73,303.323Z" transform="translate(632.819 270.795)"/><path class="o" d="M403.05,282.026l63.976,13.785s95.45,47.947,110.947,48.547l-96.391-58.564L425.534,267.06Z" transform="translate(633.759 292.587)"/><path class="p" d="M215.444,257.8c-10.274-2.192-15.412-19.093-13.7-29.471s10.394-18.751,20.549-21.765,21.114-1.216,30.669,3.151c7.62,3.425,14.727,8.562,23.015,9.829,14.555,2.158,27.672-7.98,40.139-15.823,9.572-6.028,20.155-11.079,31.457-11.73s23.392,3.836,29.453,13.391c2.5,3.939,4.007,8.7,7.654,11.627,8.237,6.576,19.864-.308,29.95-3.425a28.7,28.7,0,0,1,20.275.753c6.285,2.928,11.131,9.281,11.165,16.2,0,6.1-3.545,11.73-8.031,15.857-14.761,13.579-37.433,13.168-57.177,9.692s-40.225-9.161-59.455-3.425c-6.182,1.849-11.987,4.829-18.34,6.25-13.305,2.98-27.159-1.284-40.79-.548-15.943.873-33.46,8.237-46.8-.548" transform="translate(490.117 239.067)"/><path class="q" d="M457.31,253.885l22.57,45.122,70.243,52.366-65.174-60.893-8.254-54.009Z" transform="translate(672.414 270.795)"/><path class="m" d="M243.325,450.594s-11.9-21.765-10.942-31.406S663.6,178.595,663.6,178.595s93.549-52.9,147.8-21.491c0,0,15.788,7.261-5.48,33.032,0,0-18.836,26.268-259.618,170.573C546.3,360.709,365.54,457.409,243.325,450.594Z" transform="translate(512.135 207.158)"/><path class="r" d="M240.917,446.45S238.4,441.878,235.78,436c0,0,245.32-49.574,573.195-283.044,0,0,15.788,7.278-5.48,33.032,0,0-18.836,26.268-259.618,170.573C543.894,356.565,363.132,453.265,240.917,446.45Z" transform="translate(514.594 211.302)"/><path class="s" d="M238.77,450.746c112.608-57.674,150.692-66.2,263.317-123.893,125.314-73,120.074-143.842,210.523-170.624,39.711-11.73,69.524-13.408,94.182,1.027,0,0,15.788,7.278-5.463,33.032,0,0-18.836,26.268-259.618,170.573C541.764,360.862,361,457.562,238.77,450.746Z" transform="translate(516.725 207.005)"/><path class="t" d="M489.193,177.006h0a2.414,2.414,0,0,1-2.363-2.466v-2.106a2.432,2.432,0,0,1,2.483-2.363h0a2.432,2.432,0,0,1,2.363,2.483v2.089a2.432,2.432,0,0,1-2.483,2.363Z" transform="translate(693.445 223.491)"/><path class="t" d="M483.983,179.886h0a2.415,2.415,0,0,1-2.363-2.466v-2.106a2.414,2.414,0,0,1,2.466-2.363h0a2.432,2.432,0,0,1,2.363,2.483v2.089A2.432,2.432,0,0,1,483.983,179.886Z" transform="translate(689.733 225.542)"/><path class="t" d="M483.983,179.886h0a2.415,2.415,0,0,1-2.363-2.466v-2.106a2.414,2.414,0,0,1,2.466-2.363h0a2.432,2.432,0,0,1,2.363,2.483v2.089A2.432,2.432,0,0,1,483.983,179.886Z" transform="translate(689.733 225.542)"/><path class="t" d="M478.694,182.806h0a2.414,2.414,0,0,1-2.363-2.483v-2.089a2.432,2.432,0,0,1,2.483-2.363h0a2.432,2.432,0,0,1,2.363,2.483v2.089a2.414,2.414,0,0,1-2.483,2.363Z" transform="translate(685.964 227.623)"/><path class="t" d="M478.694,182.806h0a2.414,2.414,0,0,1-2.363-2.483v-2.089a2.432,2.432,0,0,1,2.483-2.363h0a2.432,2.432,0,0,1,2.363,2.483v2.089a2.414,2.414,0,0,1-2.483,2.363Z" transform="translate(685.964 227.623)"/><path class="t" d="M473.433,185.706h0a2.432,2.432,0,0,1-2.363-2.483v-2.089a2.432,2.432,0,0,1,2.483-2.363h0a2.432,2.432,0,0,1,2.363,2.483v2.089a2.432,2.432,0,0,1-2.483,2.363Z" transform="translate(682.217 229.689)"/><path class="t" d="M473.433,185.706h0a2.432,2.432,0,0,1-2.363-2.483v-2.089a2.432,2.432,0,0,1,2.483-2.363h0a2.432,2.432,0,0,1,2.363,2.483v2.089a2.432,2.432,0,0,1-2.483,2.363Z" transform="translate(682.217 229.689)"/><path class="t" d="M468.183,188.605h0a2.432,2.432,0,0,1-2.363-2.483v-2.089a2.415,2.415,0,0,1,2.466-2.363h0a2.432,2.432,0,0,1,2.363,2.483v2.089A2.432,2.432,0,0,1,468.183,188.605Z" transform="translate(678.477 231.755)"/><path class="t" d="M468.183,188.605h0a2.432,2.432,0,0,1-2.363-2.483v-2.089a2.415,2.415,0,0,1,2.466-2.363h0a2.432,2.432,0,0,1,2.363,2.483v2.089A2.432,2.432,0,0,1,468.183,188.605Z" transform="translate(678.477 231.755)"/><path class="t" d="M462.983,191.506h0a2.432,2.432,0,0,1-2.363-2.483v-2.089a2.4,2.4,0,0,1,2.466-2.363h0a2.432,2.432,0,0,1,2.363,2.483v2.089a2.4,2.4,0,0,1-2.466,2.363Z" transform="translate(674.772 233.82)"/><path class="t" d="M462.983,191.506h0a2.432,2.432,0,0,1-2.363-2.483v-2.089a2.4,2.4,0,0,1,2.466-2.363h0a2.432,2.432,0,0,1,2.363,2.483v2.089a2.4,2.4,0,0,1-2.466,2.363Z" transform="translate(674.772 233.82)"/><path class="t" d="M457.673,194.406h0a2.432,2.432,0,0,1-2.363-2.483v-2.089a2.432,2.432,0,0,1,2.483-2.363h0a2.432,2.432,0,0,1,2.363,2.483v2.089a2.432,2.432,0,0,1-2.483,2.363Z" transform="translate(670.989 235.887)"/><path class="t" d="M457.673,194.406h0a2.432,2.432,0,0,1-2.363-2.483v-2.089a2.432,2.432,0,0,1,2.483-2.363h0a2.432,2.432,0,0,1,2.363,2.483v2.089a2.432,2.432,0,0,1-2.483,2.363Z" transform="translate(670.989 235.887)"/><path class="t" d="M452.423,197.306h0a2.432,2.432,0,0,1-2.363-2.483v-2.089a2.415,2.415,0,0,1,2.483-2.363h0a2.432,2.432,0,0,1,2.363,2.483v2.089A2.432,2.432,0,0,1,452.423,197.306Z" transform="translate(667.249 237.952)"/><path class="t" d="M452.423,197.306h0a2.432,2.432,0,0,1-2.363-2.483v-2.089a2.415,2.415,0,0,1,2.483-2.363h0a2.432,2.432,0,0,1,2.363,2.483v2.089A2.432,2.432,0,0,1,452.423,197.306Z" transform="translate(667.249 237.952)"/><path class="t" d="M447.173,200.206h0a2.432,2.432,0,0,1-2.363-2.483v-2.089a2.4,2.4,0,0,1,2.466-2.363h0a2.415,2.415,0,0,1,2.363,2.483v2.089a2.4,2.4,0,0,1-2.466,2.363Z" transform="translate(663.509 240.018)"/><path class="t" d="M447.173,200.206h0a2.432,2.432,0,0,1-2.363-2.483v-2.089a2.4,2.4,0,0,1,2.466-2.363h0a2.415,2.415,0,0,1,2.363,2.483v2.089a2.4,2.4,0,0,1-2.466,2.363Z" transform="translate(663.509 240.018)"/><path class="t" d="M441.913,203.106h0a2.432,2.432,0,0,1-2.363-2.483v-2.089a2.431,2.431,0,0,1,2.483-2.363h0a2.415,2.415,0,0,1,2.363,2.466v2.106a2.415,2.415,0,0,1-2.483,2.363Z" transform="translate(659.762 242.085)"/><path class="t" d="M441.913,203.106h0a2.432,2.432,0,0,1-2.363-2.483v-2.089a2.431,2.431,0,0,1,2.483-2.363h0a2.415,2.415,0,0,1,2.363,2.466v2.106a2.415,2.415,0,0,1-2.483,2.363Z" transform="translate(659.762 242.085)"/><path class="t" d="M436.663,206.005h0a2.432,2.432,0,0,1-2.363-2.483v-2.089a2.432,2.432,0,0,1,2.483-2.363h0a2.432,2.432,0,0,1,2.363,2.466v2.106A2.432,2.432,0,0,1,436.663,206.005Z" transform="translate(656.022 244.151)"/><path class="t" d="M436.663,206.005h0a2.432,2.432,0,0,1-2.363-2.483v-2.089a2.432,2.432,0,0,1,2.483-2.363h0a2.432,2.432,0,0,1,2.363,2.466v2.106A2.432,2.432,0,0,1,436.663,206.005Z" transform="translate(656.022 244.151)"/><path class="t" d="M431.413,208.886h0a2.432,2.432,0,0,1-2.363-2.483v-2.089a2.4,2.4,0,0,1,2.466-2.363h0a2.414,2.414,0,0,1,2.363,2.466v2.106a2.414,2.414,0,0,1-2.466,2.363Z" transform="translate(652.282 246.202)"/><path class="t" d="M431.413,208.886h0a2.432,2.432,0,0,1-2.363-2.483v-2.089a2.4,2.4,0,0,1,2.466-2.363h0a2.414,2.414,0,0,1,2.363,2.466v2.106a2.414,2.414,0,0,1-2.466,2.363Z" transform="translate(652.282 246.202)"/><path class="t" d="M426.163,211.806h0a2.432,2.432,0,0,1-2.363-2.483v-2.089a2.432,2.432,0,0,1,2.483-2.363h0a2.414,2.414,0,0,1,2.363,2.466v2.106a2.432,2.432,0,0,1-2.483,2.363Z" transform="translate(648.541 248.283)"/><path class="t" d="M426.163,211.806h0a2.432,2.432,0,0,1-2.363-2.483v-2.089a2.432,2.432,0,0,1,2.483-2.363h0a2.414,2.414,0,0,1,2.363,2.466v2.106a2.432,2.432,0,0,1-2.483,2.363Z" transform="translate(648.541 248.283)"/><path class="t" d="M420.9,214.706h0a2.432,2.432,0,0,1-2.363-2.483v-2.089a2.432,2.432,0,0,1,2.483-2.363h0a2.4,2.4,0,0,1,2.363,2.466v2.089a2.449,2.449,0,0,1-2.483,2.38Z" transform="translate(644.794 250.349)"/><path class="t" d="M420.9,214.706h0a2.432,2.432,0,0,1-2.363-2.483v-2.089a2.432,2.432,0,0,1,2.483-2.363h0a2.4,2.4,0,0,1,2.363,2.466v2.089a2.449,2.449,0,0,1-2.483,2.38Z" transform="translate(644.794 250.349)"/><path class="t" d="M415.654,217.588h0a2.4,2.4,0,0,1-2.363-2.466v-2.089a2.414,2.414,0,0,1,2.466-2.363h0a2.4,2.4,0,0,1,2.363,2.466v2.089A2.432,2.432,0,0,1,415.654,217.588Z" transform="translate(641.054 252.414)"/><path class="t" d="M415.654,217.588h0a2.4,2.4,0,0,1-2.363-2.466v-2.089a2.414,2.414,0,0,1,2.466-2.363h0a2.4,2.4,0,0,1,2.363,2.466v2.089A2.432,2.432,0,0,1,415.654,217.588Z" transform="translate(641.054 252.414)"/><path class="t" d="M410.4,220.488h0a2.4,2.4,0,0,1-2.363-2.466v-2.089a2.431,2.431,0,0,1,2.483-2.363h0a2.4,2.4,0,0,1,2.363,2.466v2.089a2.414,2.414,0,0,1-2.483,2.363Z" transform="translate(637.314 254.48)"/><path class="t" d="M410.4,220.488h0a2.4,2.4,0,0,1-2.363-2.466v-2.089a2.431,2.431,0,0,1,2.483-2.363h0a2.4,2.4,0,0,1,2.363,2.466v2.089a2.414,2.414,0,0,1-2.483,2.363Z" transform="translate(637.314 254.48)"/><path class="t" d="M405.144,223.4h0a2.4,2.4,0,0,1-2.363-2.466V218.84a2.449,2.449,0,0,1,2.483-2.38h0a2.432,2.432,0,0,1,2.363,2.483v2.089a2.432,2.432,0,0,1-2.483,2.363Z" transform="translate(633.566 256.539)"/><path class="t" d="M405.144,223.4h0a2.4,2.4,0,0,1-2.363-2.466V218.84a2.449,2.449,0,0,1,2.483-2.38h0a2.432,2.432,0,0,1,2.363,2.483v2.089a2.432,2.432,0,0,1-2.483,2.363Z" transform="translate(633.566 256.539)"/><path class="t" d="M399.893,226.3h0a2.414,2.414,0,0,1-2.363-2.466v-2.106A2.432,2.432,0,0,1,400,219.36h0a2.432,2.432,0,0,1,2.363,2.483v2.089A2.432,2.432,0,0,1,399.893,226.3Z" transform="translate(629.827 258.605)"/><path class="t" d="M399.893,226.3h0a2.414,2.414,0,0,1-2.363-2.466v-2.106A2.432,2.432,0,0,1,400,219.36h0a2.432,2.432,0,0,1,2.363,2.483v2.089A2.432,2.432,0,0,1,399.893,226.3Z" transform="translate(629.827 258.605)"/><path class="t" d="M394.643,229.2h0a2.415,2.415,0,0,1-2.363-2.466v-2.106a2.414,2.414,0,0,1,2.466-2.363h0a2.432,2.432,0,0,1,2.363,2.483v2.089a2.4,2.4,0,0,1-2.466,2.363Z" transform="translate(626.086 260.671)"/><path class="t" d="M394.643,229.2h0a2.415,2.415,0,0,1-2.363-2.466v-2.106a2.414,2.414,0,0,1,2.466-2.363h0a2.432,2.432,0,0,1,2.363,2.483v2.089a2.4,2.4,0,0,1-2.466,2.363Z" transform="translate(626.086 260.671)"/><path class="t" d="M389.383,232.1h0a2.432,2.432,0,0,1-2.363-2.466v-2.106a2.432,2.432,0,0,1,2.483-2.363h0a2.432,2.432,0,0,1,2.363,2.483v2.089A2.432,2.432,0,0,1,389.383,232.1Z" transform="translate(622.339 262.737)"/><path class="t" d="M389.383,232.1h0a2.432,2.432,0,0,1-2.363-2.466v-2.106a2.432,2.432,0,0,1,2.483-2.363h0a2.432,2.432,0,0,1,2.363,2.483v2.089A2.432,2.432,0,0,1,389.383,232.1Z" transform="translate(622.339 262.737)"/><path class="t" d="M384.133,235h0a2.415,2.415,0,0,1-2.363-2.466v-2.106a2.414,2.414,0,0,1,2.483-2.363h0a2.432,2.432,0,0,1,2.363,2.483v2.089A2.432,2.432,0,0,1,384.133,235Z" transform="translate(618.599 264.803)"/><path class="t" d="M384.133,235h0a2.415,2.415,0,0,1-2.363-2.466v-2.106a2.414,2.414,0,0,1,2.483-2.363h0a2.432,2.432,0,0,1,2.363,2.483v2.089A2.432,2.432,0,0,1,384.133,235Z" transform="translate(618.599 264.803)"/><path class="t" d="M378.883,237.851h0a2.415,2.415,0,0,1-2.363-2.466v-2.106A2.4,2.4,0,0,1,379.055,231h0a2.432,2.432,0,0,1,2.363,2.483v2.089a2.4,2.4,0,0,1-2.534,2.277Z" transform="translate(614.859 266.896)"/><path class="t" d="M378.883,237.851h0a2.415,2.415,0,0,1-2.363-2.466v-2.106A2.4,2.4,0,0,1,379.055,231h0a2.432,2.432,0,0,1,2.363,2.483v2.089a2.4,2.4,0,0,1-2.534,2.277Z" transform="translate(614.859 266.896)"/><path class="t" d="M373.623,240.8h0a2.432,2.432,0,0,1-2.363-2.483v-2.089a2.432,2.432,0,0,1,2.483-2.363h0a2.432,2.432,0,0,1,2.363,2.483v2.089a2.415,2.415,0,0,1-2.483,2.363Z" transform="translate(611.111 268.935)"/><path class="t" d="M373.623,240.8h0a2.432,2.432,0,0,1-2.363-2.483v-2.089a2.432,2.432,0,0,1,2.483-2.363h0a2.432,2.432,0,0,1,2.363,2.483v2.089a2.415,2.415,0,0,1-2.483,2.363Z" transform="translate(611.111 268.935)"/><path class="t" d="M368.373,243.7h0a2.432,2.432,0,0,1-2.363-2.483v-2.089a2.432,2.432,0,0,1,2.483-2.363h0a2.432,2.432,0,0,1,2.363,2.483v2.089A2.432,2.432,0,0,1,368.373,243.7Z" transform="translate(607.371 271.001)"/><path class="t" d="M368.373,243.7h0a2.432,2.432,0,0,1-2.363-2.483v-2.089a2.432,2.432,0,0,1,2.483-2.363h0a2.432,2.432,0,0,1,2.363,2.483v2.089A2.432,2.432,0,0,1,368.373,243.7Z" transform="translate(607.371 271.001)"/><path class="t" d="M363.123,246.6h0a2.432,2.432,0,0,1-2.363-2.483v-2.089a2.4,2.4,0,0,1,2.466-2.363h0a2.432,2.432,0,0,1,2.363,2.483v2.089a2.4,2.4,0,0,1-2.466,2.363Z" transform="translate(603.631 273.067)"/><path class="t" d="M363.123,246.6h0a2.432,2.432,0,0,1-2.363-2.483v-2.089a2.4,2.4,0,0,1,2.466-2.363h0a2.432,2.432,0,0,1,2.363,2.483v2.089a2.4,2.4,0,0,1-2.466,2.363Z" transform="translate(603.631 273.067)"/><path class="t" d="M357.874,249.5h0a2.414,2.414,0,0,1-2.363-2.483v-2.089a2.432,2.432,0,0,1,2.483-2.363h0a2.432,2.432,0,0,1,2.363,2.483v2.089a2.414,2.414,0,0,1-2.483,2.363Z" transform="translate(599.891 275.133)"/><path class="t" d="M357.874,249.5h0a2.414,2.414,0,0,1-2.363-2.483v-2.089a2.432,2.432,0,0,1,2.483-2.363h0a2.432,2.432,0,0,1,2.363,2.483v2.089a2.414,2.414,0,0,1-2.483,2.363Z" transform="translate(599.891 275.133)"/><path class="t" d="M352.613,252.4h0a2.432,2.432,0,0,1-2.363-2.483v-2.089a2.432,2.432,0,0,1,2.483-2.363h0a2.432,2.432,0,0,1,2.363,2.483v2.089a2.432,2.432,0,0,1-2.483,2.363Z" transform="translate(596.144 277.199)"/><path class="t" d="M352.613,252.4h0a2.432,2.432,0,0,1-2.363-2.483v-2.089a2.432,2.432,0,0,1,2.483-2.363h0a2.432,2.432,0,0,1,2.363,2.483v2.089a2.432,2.432,0,0,1-2.483,2.363Z" transform="translate(596.144 277.199)"/><path class="t" d="M347.363,255.267h0A2.432,2.432,0,0,1,345,252.852v-2.089a2.415,2.415,0,0,1,2.466-2.363h0a2.432,2.432,0,0,1,2.363,2.483v2.089A2.432,2.432,0,0,1,347.363,255.267Z" transform="translate(592.404 279.294)"/><path class="t" d="M347.363,255.267h0A2.432,2.432,0,0,1,345,252.852v-2.089a2.415,2.415,0,0,1,2.466-2.363h0a2.432,2.432,0,0,1,2.363,2.483v2.089A2.432,2.432,0,0,1,347.363,255.267Z" transform="translate(592.404 279.294)"/><path class="t" d="M342.113,258.2h0a2.432,2.432,0,0,1-2.363-2.483v-2.089a2.432,2.432,0,0,1,2.483-2.363h0a2.414,2.414,0,0,1,2.363,2.483v2.089a2.414,2.414,0,0,1-2.483,2.363Z" transform="translate(588.663 281.331)"/><path class="t" d="M342.113,258.2h0a2.432,2.432,0,0,1-2.363-2.483v-2.089a2.432,2.432,0,0,1,2.483-2.363h0a2.414,2.414,0,0,1,2.363,2.483v2.089a2.414,2.414,0,0,1-2.483,2.363Z" transform="translate(588.663 281.331)"/><path class="t" d="M336.853,261.1h0a2.432,2.432,0,0,1-2.363-2.483v-2.089a2.432,2.432,0,0,1,2.483-2.363h0a2.415,2.415,0,0,1,2.363,2.466v2.106A2.432,2.432,0,0,1,336.853,261.1Z" transform="translate(584.916 283.397)"/><path class="t" d="M336.853,261.1h0a2.432,2.432,0,0,1-2.363-2.483v-2.089a2.432,2.432,0,0,1,2.483-2.363h0a2.415,2.415,0,0,1,2.363,2.466v2.106A2.432,2.432,0,0,1,336.853,261.1Z" transform="translate(584.916 283.397)"/><path class="t" d="M331.6,264h0a2.432,2.432,0,0,1-2.363-2.483v-2.089a2.414,2.414,0,0,1,2.466-2.363h0a2.415,2.415,0,0,1,2.363,2.466v2.106A2.432,2.432,0,0,1,331.6,264Z" transform="translate(581.176 285.463)"/><path class="t" d="M331.6,264h0a2.432,2.432,0,0,1-2.363-2.483v-2.089a2.414,2.414,0,0,1,2.466-2.363h0a2.415,2.415,0,0,1,2.363,2.466v2.106A2.432,2.432,0,0,1,331.6,264Z" transform="translate(581.176 285.463)"/><path class="t" d="M326.353,266.886h0a2.432,2.432,0,0,1-2.363-2.483v-2.089a2.4,2.4,0,0,1,2.466-2.363h0a2.414,2.414,0,0,1,2.363,2.466v2.106A2.432,2.432,0,0,1,326.353,266.886Z" transform="translate(577.436 287.522)"/><path class="t" d="M326.353,266.886h0a2.432,2.432,0,0,1-2.363-2.483v-2.089a2.4,2.4,0,0,1,2.466-2.363h0a2.414,2.414,0,0,1,2.363,2.466v2.106A2.432,2.432,0,0,1,326.353,266.886Z" transform="translate(577.436 287.522)"/><path class="t" d="M321.093,269.8h0a2.432,2.432,0,0,1-2.363-2.483v-2.089a2.431,2.431,0,0,1,2.483-2.363h0a2.414,2.414,0,0,1,2.363,2.466v2.106A2.432,2.432,0,0,1,321.093,269.8Z" transform="translate(573.688 289.595)"/><path class="t" d="M321.093,269.8h0a2.432,2.432,0,0,1-2.363-2.483v-2.089a2.431,2.431,0,0,1,2.483-2.363h0a2.414,2.414,0,0,1,2.363,2.466v2.106A2.432,2.432,0,0,1,321.093,269.8Z" transform="translate(573.688 289.595)"/><path class="t" d="M315.843,272.7h0a2.432,2.432,0,0,1-2.363-2.483v-2.089a2.414,2.414,0,0,1,2.466-2.363h0a2.414,2.414,0,0,1,2.38,2.466v2.089A2.449,2.449,0,0,1,315.843,272.7Z" transform="translate(569.948 291.661)"/><path class="t" d="M315.843,272.7h0a2.432,2.432,0,0,1-2.363-2.483v-2.089a2.414,2.414,0,0,1,2.466-2.363h0a2.414,2.414,0,0,1,2.38,2.466v2.089A2.449,2.449,0,0,1,315.843,272.7Z" transform="translate(569.948 291.661)"/><path class="t" d="M310.594,275.579h0a2.4,2.4,0,0,1-2.363-2.466v-2.089a2.4,2.4,0,0,1,2.466-2.363h0a2.4,2.4,0,0,1,2.363,2.466v2.089a2.4,2.4,0,0,1-2.466,2.363Z" transform="translate(566.208 293.727)"/><path class="t" d="M506.74,171.713l3,5.137s42.81-25.583,56.03-29.71a232.88,232.88,0,0,0-24.179,3.75C532.255,153.151,506.74,171.713,506.74,171.713Z" transform="translate(707.629 207.155)"/><path class="u" d="M375.283,284.424s-43.273,18.2-67.075-3.665S248.274,229.9,248.274,229.9s-22.621-11.987-30.344,10.977l39.3,111.033Z" transform="translate(501.878 263.887)"/><path class="v" d="M371.19,284.494S327.9,302.68,304.1,280.813s-59.934-50.859-59.934-50.859-11.165-5.959-20.549-1.507c-3.956,1.884,68.959,100.929,68.959,100.929Z" transform="translate(505.817 263.903)"/><path class="w" d="M213,215.218s-31.269-28.323,46.971-14.8,337.584,43.084,337.584,43.084,26.217,22.039-129.561,53l-38.718-16.148Z" transform="translate(493.968 242.507)"/><path class="x" d="M242.188,199.546c78.24,13.511,337.6,43.1,337.6,43.1s8.408,7.055-12.569,18.837C551.141,270.457,163.948,185.967,242.188,199.546Z" transform="translate(511.73 243.435)"/><path class="y" d="M213.013,213.387s-9.3-8.425-5.137-13.888c3.528-4.555,305.391,85.244,305.391,85.244-13.066,3.185-28.066,6.507-45.31,9.932l-38.718-16.148Z" transform="translate(493.952 244.337)"/><path class="z" d="M261.366,328.559s43.684,23.135,51.184,18.477,9.572-10.685.1-26.251l-2.038-3.185-54.095,6.627Z" transform="translate(529.37 328.593)"/><path class="aa" d="M332.5,295.732,189.156,281.348s-26.782-2.843-31.868,1.952c-3.733,3.545-2.962,9.315,4.966,11.37l126.222,36.337S344.643,301.9,332.5,295.732Z" transform="translate(457.138 302.17)"/><path class="ab" d="M155.466,283.809c-1.113,3.271.771,7,6.85,8.562l126.136,36.3s8.973-4.658,18.991-10.651C307.288,318.074,155.826,282.815,155.466,283.809Z" transform="translate(457.162 304.505)"/><path class="m" d="M370.952,257.791s-6.319-14.127.651-23.066c5.463-6.987,49.3-30,49.3-30s15.412-7.791,28.426,8.117-.959,29.967-.959,29.967S388.436,290,370.952,257.791" transform="translate(609.022 246.819)"/><path class="r" d="M369.86,253.621l78.377-44.951c13.031,15.925-.959,29.967-.959,29.967s-59.934,47.194-77.418,14.984" transform="translate(610.114 250.99)"/><path class="ac" d="M426.852,242.81s13.99-14.042.959-29.967-28.426-8.117-28.426-8.117S390.994,235.173,426.852,242.81Z" transform="translate(630.54 246.817)"/><path class="ad" d="M399,208.877s10.908-7.706,22.039,4.247,7.055,18.837,4.11,23.974C425.2,237.029,403.4,237.2,399,208.877Z" transform="translate(630.874 249.396)"/><path class="ae" d="M405.342,203a20.736,20.736,0,0,0-5.017,1.541,8.2,8.2,0,0,0-2.877,4.795c-.873,8.562,1.712,27.587,26.851,33.991a4.144,4.144,0,0,0,3.425-.7,22.844,22.844,0,0,0,4.9-7.774c-.1,0-1.353,3.682-4.795,3.921-4.675.325-13.271-2.432-19.8-11.216-4.812-6.49-7.363-13.888-7.072-18.477A6.422,6.422,0,0,1,405.342,203Z" transform="translate(629.669 246.951)"/><path class="ac" d="M370.952,246.135s-6.319-14.144.651-23.083a29.5,29.5,0,0,1,4.058-3.562c-5.548,34.985,28.871,35.635,28.871,35.635-17.518,5.634-28.34.668-33.58-8.99" transform="translate(609.022 258.698)"/><path class="m" d="M471.331,301.075s-5.514-12.346.582-20.155c4.76-6.1,43.05-26.2,43.05-26.2s13.442-6.85,24.83,7.089-.856,26.166-.856,26.166-52.348,41.218-67.606,13.1" transform="translate(680.774 282.598)"/><path class="r" d="M470.38,297.426l68.5-39.266c11.37,13.9-.856,26.166-.856,26.166s-52.348,41.218-67.606,13.1" transform="translate(681.726 286.247)"/><path class="ac" d="M520.144,287.97S532.37,275.709,521,261.8s-24.83-7.089-24.83-7.089S488.841,281.309,520.144,287.97Z" transform="translate(699.568 282.603)"/><path class="ad" d="M495.86,258.335s9.538-6.713,19.247,3.716,6.165,16.491,3.6,20.874C518.7,282.925,499.662,283.079,495.86,258.335Z" transform="translate(699.878 284.857)"/><path class="ae" d="M501.34,253.24a17.9,17.9,0,0,0-4.384,1.336,7.107,7.107,0,0,0-2.517,4.178c-.753,7.432,1.576,24.094,23.443,29.693a3.648,3.648,0,0,0,3.048-.616,19.9,19.9,0,0,0,4.3-6.85,5.5,5.5,0,0,1-4.2,3.425c-4.076.274-11.576-2.123-17.278-9.812-4.213-5.668-6.439-12.107-6.2-16.131a5.634,5.634,0,0,1,3.784-5.223Z" transform="translate(698.782 282.742)"/><path class="ac" d="M471.331,290.865s-5.514-12.329.582-20.155a26.288,26.288,0,0,1,3.528-3.1c-4.829,30.549,25.224,31.114,25.224,31.114-15.309,4.932-24.744.582-29.334-7.86" transform="translate(680.774 292.979)"/></g></g></svg>