<svg xmlns="http://www.w3.org/2000/svg" width="20.338" height="20.338" viewBox="0 0 20.338 20.338"><g transform="translate(14166.25 20651.576)"><g transform="translate(-14166 -20651.326)"><path d="M9.919,0a9.919,9.919,0,1,0,9.919,9.919A9.93,9.93,0,0,0,9.919,0Zm0,18.3A8.382,8.382,0,1,1,18.3,9.919,8.392,8.392,0,0,1,9.919,18.3Z" fill="#f826c1" stroke="#f826c1" stroke-width="0.5"/></g><g transform="translate(-14161.439 -20645.555)"><path d="M142.707,162.05a.873.873,0,0,0-1.233.059l-5.326,5.865-2.573-2.616a.873.873,0,1,0-1.245,1.224l3.221,3.274a.872.872,0,0,0,.622.261h.017a.874.874,0,0,0,.629-.286l5.947-6.548A.874.874,0,0,0,142.707,162.05Z" transform="translate(-132.079 -161.824)" fill="#f826c1" stroke="#f826c1" stroke-width="0.5"/></g></g></svg>