<svg xmlns="http://www.w3.org/2000/svg" width="20" height="20" viewBox="0 0 20 20"><defs><style>.a{fill:rgba(255,255,255,0);}.b{fill:#fff;}</style></defs><g transform="translate(-446 -367)"><rect class="a" width="20" height="20" transform="translate(446 367)"/><g transform="translate(442 359.544)"><path class="b" d="M8.26,13.417c-.843,1.362-.865,2.919-.173,3.395.043.022.086.065.13.086a9.736,9.736,0,0,1,1.341-3.006,1.891,1.891,0,0,0,.173-.216l.13.13a49.813,49.813,0,0,1-1.492,9.752,10.164,10.164,0,0,1,1.924-.346,51.929,51.929,0,0,1,.324-9.341,22.131,22.131,0,0,1,1.124,3.438c.5-.584.389-2.054-.281-3.611a22.523,22.523,0,0,1,3.373,1.708c-.043-.562-.649-1.233-1.622-1.816a15.505,15.505,0,0,1,1.751.778.4.4,0,0,0,.043-.151c.151-.822-.951-1.881-2.443-2.227.8-.3,1.687-.584,2.638-.865-.5-.411-1.643-.389-2.941.065a10.931,10.931,0,0,1,1.816-1.276c-.043-.043-.065-.086-.108-.108-.649-.584-2.27-.13-3.373,1.124l-.173-.411C9.687,8.984,8.238,8.163,7.46,8.552a.452.452,0,0,0-.13.086,9.976,9.976,0,0,1,2.033,2.7l-.13.065A9.2,9.2,0,0,0,8,10.866c-1.773-.605-3.438-.584-4,.022a16.757,16.757,0,0,1,4.757,1.189l-1.319.714c-1.838,1.1-2.9,2.811-2.443,3.568a.573.573,0,0,0,.108.13A8.393,8.393,0,0,1,8.26,13.417Z" transform="translate(0 0)"/><path class="b" d="M23.1,79.676a3.562,3.562,0,0,1-1.708-.735,5,5,0,0,0-1.254-.714,3.9,3.9,0,0,0-.454-.173,9.679,9.679,0,0,0-2.962-.454c-.281,0-.562.022-.822.043a9.475,9.475,0,0,0-2.011.389c-1.665.519-2.789,1.492-2.789,2.616H29.48Z" transform="translate(-5.565 -54.193)"/><path class="b" d="M34.1,51.819l.735-.216a.9.9,0,0,1,.584,0l.476.13a.836.836,0,0,0,.562,0l.5-.151a.921.921,0,0,1,.541,0l.216.065v4.3a3.9,3.9,0,0,1,.454.173V51.754a.859.859,0,0,0,.519-.043l.259-.086a.955.955,0,0,1,.649,0l.259.086a1.151,1.151,0,0,0,.714-.022.963.963,0,0,1,.735-.022l.476.173c0-1.189-1.708-2.141-3.827-2.141S34.1,50.63,34.1,51.819Z" transform="translate(-23.591 -32.326)"/></g></g></svg>