<svg xmlns="http://www.w3.org/2000/svg" xmlns:xlink="http://www.w3.org/1999/xlink" width="118" height="118" viewBox="0 0 118 118"><defs><style>.a{fill:#0043ff;}.b{fill:#ffdd0f;}.c{fill:#00aeef;}.d{fill:#fff;}.e{fill:#29aae1;}.f{fill:#fc7e66;}.g{fill:#a0ddf8;}.h{filter:url(#a);}</style><filter id="a" x="0" y="0" width="118" height="118" filterUnits="userSpaceOnUse"><feOffset dy="3" input="SourceAlpha"/><feGaussianBlur stdDeviation="3" result="b"/><feFlood flood-opacity="0.161"/><feComposite operator="in" in2="b"/><feComposite in="SourceGraphic"/></filter></defs><g transform="translate(9.099 6)"><g class="h" transform="matrix(1, 0, 0, 1, -9.1, -6)"><rect class="a" width="100" height="100" rx="20" transform="translate(9 6)"/></g><g transform="translate(16.852 22.134)"><g transform="translate(0 0)"><path class="b" d="M484.465,991.41l-17.333,4.529,2.662,9.352-2,.569-2.675-9.4L452.93,999.65a24.023,24.023,0,0,0,44.793-.5A19.2,19.2,0,0,1,484.465,991.41Z" transform="translate(-451.052 -962.426)"/><g transform="translate(27.312 44.369)"><g transform="translate(18.637)"><path class="c" d="M1296.082,1283.976a4.82,4.82,0,0,0-1.778-.516,4.766,4.766,0,0,0-1.7.516c-.676.255-3.059,1.141-3.059,1.141s.8.272,2.777,1.141a4.818,4.818,0,0,0,1.778.516,4.765,4.765,0,0,0,1.7-.516c.676-.255,3.059-1.141,3.059-1.141S1298.058,1284.846,1296.082,1283.976Z" transform="translate(-1289.54 -1283.46)"/></g><g transform="translate(27.956)"><path class="c" d="M1472.972,1283.976a4.82,4.82,0,0,0-1.779-.516,4.767,4.767,0,0,0-1.7.516c-.676.255-3.059,1.141-3.059,1.141s.8.272,2.777,1.141a4.819,4.819,0,0,0,1.779.516,4.763,4.763,0,0,0,1.7-.516c.675-.255,3.059-1.141,3.059-1.141S1474.948,1284.846,1472.972,1283.976Z" transform="translate(-1466.43 -1283.46)"/></g><g transform="translate(9.318)"><path class="c" d="M1119.182,1283.976a4.82,4.82,0,0,0-1.778-.516,4.768,4.768,0,0,0-1.7.516c-.676.255-3.059,1.141-3.059,1.141s.8.272,2.777,1.141a4.821,4.821,0,0,0,1.779.516,4.765,4.765,0,0,0,1.7-.516c.675-.255,3.059-1.141,3.059-1.141S1121.159,1284.846,1119.182,1283.976Z" transform="translate(-1112.64 -1283.46)"/></g><path class="c" d="M942.292,1283.976a4.819,4.819,0,0,0-1.778-.516,4.768,4.768,0,0,0-1.7.516c-.676.255-3.059,1.141-3.059,1.141s.8.272,2.777,1.141a4.819,4.819,0,0,0,1.778.516,4.765,4.765,0,0,0,1.7-.516c.676-.255,3.059-1.141,3.059-1.141S944.268,1284.846,942.292,1283.976Z" transform="translate(-935.75 -1283.46)"/><g transform="translate(18.637 8.003)"><path class="c" d="M1296.082,1435.886a4.823,4.823,0,0,0-1.778-.516,4.766,4.766,0,0,0-1.7.516c-.676.255-3.059,1.141-3.059,1.141s.8.272,2.777,1.141a3.194,3.194,0,0,0,3.483,0c.676-.255,3.059-1.141,3.059-1.141S1298.058,1436.755,1296.082,1435.886Z" transform="translate(-1289.54 -1435.37)"/></g><g transform="translate(9.318 8.003)"><path class="c" d="M1119.182,1435.886a4.822,4.822,0,0,0-1.778-.516,4.768,4.768,0,0,0-1.7.516c-.676.255-3.059,1.141-3.059,1.141s.8.272,2.777,1.141a3.194,3.194,0,0,0,3.483,0c.675-.255,3.059-1.141,3.059-1.141S1121.159,1436.755,1119.182,1435.886Z" transform="translate(-1112.64 -1435.37)"/></g><g transform="translate(23.296 4.001)"><path class="c" d="M1384.522,1359.926a4.819,4.819,0,0,0-1.778-.516,4.768,4.768,0,0,0-1.7.516c-.676.255-3.059,1.141-3.059,1.141s.8.272,2.777,1.141a3.194,3.194,0,0,0,3.483,0c.675-.255,3.059-1.141,3.059-1.141S1386.5,1360.8,1384.522,1359.926Z" transform="translate(-1377.98 -1359.41)"/></g><g transform="translate(13.978 4.001)"><path class="c" d="M1207.632,1359.926a4.82,4.82,0,0,0-1.779-.516,4.766,4.766,0,0,0-1.7.516c-.676.255-3.059,1.141-3.059,1.141s.8.272,2.777,1.141a3.194,3.194,0,0,0,3.483,0c.676-.255,3.059-1.141,3.059-1.141S1209.609,1360.8,1207.632,1359.926Z" transform="translate(-1201.09 -1359.41)"/></g><g transform="translate(4.659 4.001)"><path class="c" d="M1030.742,1359.926a4.819,4.819,0,0,0-1.778-.516,4.768,4.768,0,0,0-1.7.516c-.676.255-3.059,1.141-3.059,1.141s.8.272,2.777,1.141a3.194,3.194,0,0,0,3.483,0c.675-.255,3.059-1.141,3.059-1.141S1032.718,1360.8,1030.742,1359.926Z" transform="translate(-1024.2 -1359.41)"/></g></g><path class="d" d="M417.29,750.542l25.031-6.637-14.815-4.946Z" transform="translate(-417.29 -723.275)"/><path class="d" d="M635.216,896.982l-2.012.525-2.843-9.987,2-.569Z" transform="translate(-619.136 -863.469)"/><g transform="translate(27.312 44.369)"><path class="e" d="M1117.965,1283.535a2.444,2.444,0,0,0-.562-.075,4.768,4.768,0,0,0-1.7.516c-.676.255-3.059,1.141-3.059,1.141s.738.251,2.539,1.037A23.946,23.946,0,0,0,1117.965,1283.535Z" transform="translate(-1103.322 -1283.46)"/><path class="e" d="M942.009,1286.267c.676-.256,3.059-1.141,3.059-1.141s-.8-.272-2.777-1.141a4.821,4.821,0,0,0-1.778-.516,4.765,4.765,0,0,0-1.7.516c-.676.255-3.059,1.141-3.059,1.141s.8.272,2.777,1.141a4.822,4.822,0,0,0,1.778.516A4.767,4.767,0,0,0,942.009,1286.267Z" transform="translate(-935.75 -1283.469)"/><path class="e" d="M1028.963,1359.41a4.765,4.765,0,0,0-1.7.516c-.676.255-3.059,1.14-3.059,1.14s.387.132,1.285.5a23.869,23.869,0,0,0,4.007-2.092A2.424,2.424,0,0,0,1028.963,1359.41Z" transform="translate(-1019.541 -1355.409)"/></g><path class="f" d="M1017.628,469.064a18.178,18.178,0,1,0-30.01,1.128l13.9-9.754,5.742,5.48,3.933-3.376Z" transform="translate(-954.203 -441.21)"/><path class="d" d="M1051.55,815.966a19.2,19.2,0,0,0,13.258,7.735,18.672,18.672,0,0,0,16.755-8.866l-6.432-6.521-3.933,3.376-5.742-5.48Z" transform="translate(-1018.138 -786.982)"/><path class="g" d="M1308.539,828.99l-.184,2.727-.145,4.789,6.358,4.3-1.425-3.759,1.021.888,4.109.793Z" transform="translate(-1261.277 -808.562)"/><path class="g" d="M1461.861,867.13l-2.141,1.963,2,2.079,1.912.342,2.01,1.857,1.959-.165-1.14-1.23Z" transform="translate(-1404.805 -844.693)"/></g></g></g></svg>