<svg xmlns="http://www.w3.org/2000/svg" width="16.003" height="10" viewBox="0 0 16.003 10"><defs><style>.a{fill:#f0f0f0;}.b{fill:#d80027;}.c{fill:#2e52b2;}</style></defs><g transform="translate(0 -85.331)"><rect class="a" width="16.003" height="10" transform="translate(0 85.331)"/><g transform="translate(0 86.692)"><rect class="b" width="16.003" height="1.361"/><rect class="b" width="16.003" height="1.361" transform="translate(0 2.426)"/><rect class="b" width="16.003" height="1.361" transform="translate(0 4.851)"/><rect class="b" width="16.003" height="1.361" transform="translate(0 7.277)"/></g><rect class="c" width="8.002" height="5.865" transform="translate(0 85.331)"/><g transform="translate(0.813 86.273)"><path class="a" d="M82.909,160.624l-.129.4h-.417l.337.25-.129.4.337-.25.337.25-.129-.4.337-.25h-.417Z" transform="translate(-80.601 -159.163)"/><path class="a" d="M83.037,206.8l-.129-.4-.129.4h-.417l.337.25-.129.4.337-.25.337.25-.129-.4.337-.25Z" transform="translate(-80.601 -203.476)"/><path class="a" d="M26.675,206.8l-.129-.4-.129.4H26l.337.25-.129.4.337-.25.337.25-.129-.4.337-.25Z" transform="translate(-26.001 -203.476)"/><path class="a" d="M26.547,160.624l-.129.4H26l.337.25-.129.4.337-.25.337.25-.129-.4.337-.25h-.417Z" transform="translate(-26.001 -159.163)"/><path class="a" d="M82.909,114.85l-.129.4h-.417l.337.25-.129.4.337-.25.337.25-.129-.4.337-.25h-.417Z" transform="translate(-80.601 -114.85)"/><path class="a" d="M26.547,114.85l-.129.4H26l.337.25-.129.4.337-.25.337.25-.129-.4.337-.25h-.417Z" transform="translate(-26.001 -114.85)"/><path class="a" d="M139.271,160.624l-.129.4h-.417l.337.25-.129.4.337-.25.337.25-.129-.4.337-.25H139.4Z" transform="translate(-135.202 -159.163)"/><path class="a" d="M139.4,206.8l-.129-.4-.129.4h-.417l.337.25-.129.4.337-.25.337.25-.129-.4.337-.25Z" transform="translate(-135.202 -203.476)"/><path class="a" d="M195.762,206.8l-.129-.4-.129.4h-.417l.337.25-.129.4.337-.25.337.25-.129-.4.337-.25Z" transform="translate(-189.803 -203.476)"/><path class="a" d="M195.634,160.624l-.129.4h-.417l.337.25-.129.4.337-.25.337.25-.129-.4.337-.25h-.417Z" transform="translate(-189.803 -159.163)"/><path class="a" d="M139.271,114.85l-.129.4h-.417l.337.25-.129.4.337-.25.337.25-.129-.4.337-.25H139.4Z" transform="translate(-135.202 -114.85)"/><path class="a" d="M195.634,114.85l-.129.4h-.417l.337.25-.129.4.337-.25.337.25-.129-.4.337-.25h-.417Z" transform="translate(-189.803 -114.85)"/></g></g></svg>