<svg xmlns="http://www.w3.org/2000/svg" width="20" height="20" viewBox="0 0 20 20">
  <g id="hotel-icon-active" transform="translate(-306 -366)">
    <rect id="Rectangle_3" data-name="Rectangle 3" width="20" height="20" transform="translate(306 366)" fill="rgba(255,255,255,0)"/>
    <path id="Path_5" data-name="Path 5" d="M26.257,954.362c-1.906,0-3.812,2.083-5.2,2.083v17.083H20.4a.417.417,0,1,0,.039.833H32.078a.417.417,0,1,0,0-.833h-.624V956.445C30.069,956.445,28.163,954.362,26.257,954.362Zm-1.7,2.083H27.92a.433.433,0,0,1,.416.417v.833a.433.433,0,0,1-.416.417H24.594a.433.433,0,0,1-.416-.417v-.833a.432.432,0,0,1,.377-.417Zm-1.871,2.5H23.97a.433.433,0,0,1,.416.417v1.25a.432.432,0,0,1-.416.417H22.723a.433.433,0,0,1-.416-.417v-1.25a.431.431,0,0,1,.377-.417Zm2.911,0h1.286a.433.433,0,0,1,.416.417v1.25a.432.432,0,0,1-.416.417h-1.25a.433.433,0,0,1-.416-.417v-1.25a.431.431,0,0,1,.377-.417Zm2.911,0h1.286a.433.433,0,0,1,.416.417v1.25a.432.432,0,0,1-.416.417h-1.25a.433.433,0,0,1-.416-.417v-1.25a.431.431,0,0,1,.372-.417Zm-5.366.833v.417h.416v-.417Zm2.911,0v.417h.416v-.417Zm2.911,0v.417h.416v-.417Zm-6.276,2.083H23.97a.433.433,0,0,1,.416.417v1.25a.433.433,0,0,1-.416.417H22.723a.433.433,0,0,1-.416-.417v-1.25a.431.431,0,0,1,.377-.416Zm2.911,0h1.286a.433.433,0,0,1,.416.417v1.25a.433.433,0,0,1-.416.417H25.633a.433.433,0,0,1-.416-.417v-1.25a.431.431,0,0,1,.377-.416Zm2.911,0H29.8a.433.433,0,0,1,.416.417v1.25a.433.433,0,0,1-.416.417H28.544a.433.433,0,0,1-.416-.417v-1.25a.431.431,0,0,1,.372-.416Zm-5.366.833v.417h.416V962.7Zm2.911,0v.417h.416V962.7Zm2.911,0v.417h.416V962.7Zm-6.276,2.083h1.28a.433.433,0,0,1,.416.417v1.25a.433.433,0,0,1-.416.417H22.723a.433.433,0,0,1-.416-.417V965.2a.431.431,0,0,1,.377-.421Zm2.911,0h1.286a.433.433,0,0,1,.416.417v1.25a.433.433,0,0,1-.416.417H25.633a.433.433,0,0,1-.416-.417V965.2a.431.431,0,0,1,.377-.421Zm2.911,0H29.8a.433.433,0,0,1,.416.417v1.25a.433.433,0,0,1-.416.417H28.544a.433.433,0,0,1-.416-.417V965.2a.431.431,0,0,1,.372-.421Zm-5.366.833v.417h.416v-.417Zm2.911,0v.417h.416v-.417Zm2.911,0v.417h.416v-.417Zm-6.284,2.09H23.97a.433.433,0,0,1,.416.417v1.25a.433.433,0,0,1-.416.417H22.723a.433.433,0,0,1-.416-.417v-1.25a.431.431,0,0,1,.377-.417Zm2.911,0h1.286a.433.433,0,0,1,.416.417v1.25a.433.433,0,0,1-.416.417H25.633a.433.433,0,0,1-.416-.417v-1.25a.431.431,0,0,1,.377-.417Zm2.911,0h1.286a.433.433,0,0,1,.416.417v1.25a.433.433,0,0,1-.416.417H28.544a.433.433,0,0,1-.416-.417v-1.25a.431.431,0,0,1,.372-.417Zm-5.366.833v.417h.416v-.417Zm2.911,0v.417h.416v-.417Zm2.911,0v.417h.416v-.417Zm-4.613,2.083H28.13a.433.433,0,0,1,.416.417v2.5h-.832V971.45H26.465v2.083h-.416V971.45H24.8v2.083h-.83v-2.5a.431.431,0,0,1,.377-.421Z" transform="translate(290 -588.362)" fill="#fc7e66"/>
  </g>
</svg>
