<svg xmlns="http://www.w3.org/2000/svg" width="20" height="20" viewBox="0 0 20 20"><defs><style>.a{fill:rgba(255,255,255,0);}.b{fill:#fff;}</style></defs><g transform="translate(-306 -366)"><rect class="a" width="20" height="20" transform="translate(306 366)"/><path class="b" d="M26.257,954.362c-1.906,0-3.812,2.083-5.2,2.083v17.083H20.4a.417.417,0,0,0,.039.833H32.078a.417.417,0,1,0,0-.833h-.624V956.445C30.069,956.445,28.163,954.362,26.257,954.362Zm-1.7,2.083H27.92a.433.433,0,0,1,.416.417v.833a.433.433,0,0,1-.416.417H24.594a.433.433,0,0,1-.416-.417v-.833A.432.432,0,0,1,24.555,956.445Zm-1.871,2.5H23.97a.433.433,0,0,1,.416.417v1.25a.432.432,0,0,1-.416.417H22.723a.433.433,0,0,1-.416-.417v-1.25A.431.431,0,0,1,22.684,958.945Zm2.911,0h1.286a.433.433,0,0,1,.416.417v1.25a.432.432,0,0,1-.416.417H25.633a.433.433,0,0,1-.416-.417v-1.25A.431.431,0,0,1,25.594,958.945Zm2.911,0h1.286a.433.433,0,0,1,.416.417v1.25a.432.432,0,0,1-.416.417H28.544a.433.433,0,0,1-.416-.417v-1.25A.431.431,0,0,1,28.5,958.945Zm-5.366.833v.417h.416v-.417Zm2.911,0v.417h.416v-.417Zm2.911,0v.417h.416v-.417Zm-6.276,2.083H23.97a.433.433,0,0,1,.416.417v1.25a.433.433,0,0,1-.416.417H22.723a.433.433,0,0,1-.416-.417v-1.25A.431.431,0,0,1,22.684,961.862Zm2.911,0h1.286a.433.433,0,0,1,.416.417v1.25a.433.433,0,0,1-.416.417H25.633a.433.433,0,0,1-.416-.417v-1.25A.431.431,0,0,1,25.594,961.862Zm2.911,0h1.286a.433.433,0,0,1,.416.417v1.25a.433.433,0,0,1-.416.417H28.544a.433.433,0,0,1-.416-.417v-1.25A.431.431,0,0,1,28.5,961.862Zm-5.366.833v.417h.416V962.7Zm2.911,0v.417h.416V962.7Zm2.911,0v.417h.416V962.7Zm-6.276,2.083H23.97a.433.433,0,0,1,.416.417v1.25a.433.433,0,0,1-.416.417H22.723a.433.433,0,0,1-.416-.417V965.2A.431.431,0,0,1,22.684,964.779Zm2.911,0h1.286a.433.433,0,0,1,.416.417v1.25a.433.433,0,0,1-.416.417H25.633a.433.433,0,0,1-.416-.417V965.2A.431.431,0,0,1,25.594,964.779Zm2.911,0h1.286a.433.433,0,0,1,.416.417v1.25a.433.433,0,0,1-.416.417H28.544a.433.433,0,0,1-.416-.417V965.2A.431.431,0,0,1,28.5,964.779Zm-5.366.833v.417h.416v-.417Zm2.911,0v.417h.416v-.417Zm2.911,0v.417h.416v-.417ZM22.684,967.7H23.97a.433.433,0,0,1,.416.417v1.25a.433.433,0,0,1-.416.417H22.723a.433.433,0,0,1-.416-.417v-1.25A.431.431,0,0,1,22.684,967.7Zm2.911,0h1.286a.433.433,0,0,1,.416.417v1.25a.433.433,0,0,1-.416.417H25.633a.433.433,0,0,1-.416-.417v-1.25A.431.431,0,0,1,25.594,967.7Zm2.911,0h1.286a.433.433,0,0,1,.416.417v1.25a.433.433,0,0,1-.416.417H28.544a.433.433,0,0,1-.416-.417v-1.25A.431.431,0,0,1,28.5,967.7Zm-5.366.833v.417h.416v-.417Zm2.911,0v.417h.416v-.417Zm2.911,0v.417h.416v-.417Zm-4.613,2.083h3.781a.433.433,0,0,1,.416.417v2.5h-.832v-2.083H26.465v2.083h-.416v-2.083H24.8v2.083H23.97v-2.5A.431.431,0,0,1,24.347,970.612Z" transform="translate(290 -588.362)"/></g></svg>