<svg xmlns="http://www.w3.org/2000/svg" width="18" height="18" viewBox="0 0 18 18"><defs><style>.a{fill:#cad1de;}.b{fill:#fff;}</style></defs><g transform="translate(-140.5 -435)"><circle class="a" cx="9" cy="9" r="9" transform="translate(140.5 435)"/><path class="b" d="M6.228,7.529l-1.4,1.4a.424.424,0,0,1-.6,0l-1.4-1.4a.424.424,0,0,1,.3-.724h.9V5.022H2.249v.9a.424.424,0,0,1-.725.3l-1.4-1.4a.424.424,0,0,1,0-.6l1.4-1.4a.424.424,0,0,1,.725.3v.906H4.032V2.249H3.126a.424.424,0,0,1-.3-.725l1.4-1.4a.424.424,0,0,1,.6,0l1.4,1.4a.424.424,0,0,1-.3.725h-.9V4.032H6.8v-.9a.424.424,0,0,1,.724-.3l1.4,1.4a.424.424,0,0,1,0,.6l-1.4,1.4a.424.424,0,0,1-.724-.3V5.022H5.022V6.8h.906A.424.424,0,0,1,6.228,7.529Z" transform="translate(144.5 439)"/></g></svg>