<svg xmlns="http://www.w3.org/2000/svg" width="18" height="18" viewBox="0 0 18 18">
  <g id="multi-city-icon-active" transform="translate(-140.5 -435)">
    <circle id="Ellipse_1" data-name="Ellipse 1" cx="9" cy="9" r="9" transform="translate(140.5 435)" fill="#ff6f61"/>
    <path id="Path_1" data-name="Path 1" d="M6.228,7.529l-1.4,1.4a.424.424,0,0,1-.6,0l-1.4-1.4a.424.424,0,0,1,.3-.724h.9V5.022H2.249v.9a.424.424,0,0,1-.725.3l-1.4-1.4a.424.424,0,0,1,0-.6l1.4-1.4a.424.424,0,0,1,.725.3v.906H4.032V2.249H3.126a.424.424,0,0,1-.3-.725l1.4-1.4a.424.424,0,0,1,.6,0l1.4,1.4a.424.424,0,0,1-.3.725h-.9V4.032H6.8v-.9a.424.424,0,0,1,.724-.3l1.4,1.4a.424.424,0,0,1,0,.6l-1.4,1.4a.424.424,0,0,1-.724-.3v-.91H5.022V6.8h.906a.424.424,0,0,1,.3.729Z" transform="translate(144.5 439)" fill="#fff"/>
  </g>
</svg>
