<svg xmlns="http://www.w3.org/2000/svg" width="21.413" height="20" viewBox="0 0 21.413 20"><defs><style>.a{fill:#00aeef;}</style></defs><g transform="translate(-236 308.748) rotate(-90)"><path class="a" d="M8.881,16.555V2.8a.581.581,0,0,0-.609-.547H5.428a.581.581,0,0,0-.609.547V16.555H2.479a1.084,1.084,0,0,0-.862,1.867l4.37,3.921a1.319,1.319,0,0,0,1.724,0l4.37-3.921a1.084,1.084,0,0,0-.862-1.867H8.881Z" transform="translate(296.307 234.75)"/><path class="a" d="M7.623,14.3V.547A.581.581,0,0,0,7.013,0H4.17A.581.581,0,0,0,3.56.547V14.3H1.221a1.084,1.084,0,0,0-.862,1.867l4.37,3.921a1.319,1.319,0,0,0,1.724,0l4.37-3.921A1.084,1.084,0,0,0,9.962,14.3H7.623Z" transform="translate(299.931 256.413) rotate(180)"/></g></svg>