<svg xmlns="http://www.w3.org/2000/svg" width="24" height="24" viewBox="0 0 24 24"><defs><style>.a{fill:#ff6f61;}.b{fill:rgba(46,0,0,0);}.c{fill:#fff;}</style></defs><g transform="translate(4 4)"><rect class="a" width="24" height="24" rx="5" transform="translate(-4 -4)"/><g transform="translate(-29 -417)"><g transform="translate(-210 55)"><rect class="b" width="14" height="14" transform="translate(240 363)"/><path class="c" d="M5.23,5.423A1.333,1.333,0,1,1,7.087,5.1,1.34,1.34,0,0,1,5.23,5.423Zm7.089,8.893H7.613a1.991,1.991,0,0,1-1.97-1.691l-1.311-6.3H3l1.325,6.5A3.335,3.335,0,0,0,7.62,15.648h4.7Zm.153-2.663H9.224L8.538,8.925a5.15,5.15,0,0,0,3.428.812V8.319a4.056,4.056,0,0,1-3.122-.832L7.753,6.642a1.506,1.506,0,0,0-.506-.253,1.471,1.471,0,0,0-.659-.04H6.574A1.509,1.509,0,0,0,5.35,8.086l.9,3.941a2,2,0,0,0,1.964,1.624h4.56l2.543,2,1-1Z" transform="translate(237.687 360.686)"/></g></g></g></svg>