<svg xmlns="http://www.w3.org/2000/svg" width="45.423" height="38.198" viewBox="0 0 45.423 38.198"><defs><style>.a{fill:#ffdd0f;}.b{fill:#00aeef;}.c{fill:#0043ff;}.d{fill:#29aae1;}.e{fill:#a0ddf8;}.f{fill:#fc7e66;}</style></defs><g transform="translate(1172 107.001)"><path class="a" d="M388.507,1512.37l-11.889,3.107,1.826,6.415-1.372.391-1.829-6.445-8.362,2.187a16.478,16.478,0,0,0,30.727-.347,13.173,13.173,0,0,1-9.1-5.308Z" transform="translate(-1537.588 -1599.485)"/><path class="b" d="M675.427,1618.884a2.192,2.192,0,0,0-2.389,0c-.463.175-2.1.782-2.1.782s.549.187,1.9.783a2.193,2.193,0,0,0,2.39,0c.464-.175,2.1-.783,2.1-.783S676.783,1619.48,675.427,1618.884Z" transform="translate(-1811.421 -1695.092)"/><path class="b" d="M739.737,1618.884a2.193,2.193,0,0,0-2.39,0c-.464.175-2.1.782-2.1.782s.549.187,1.9.783a2.192,2.192,0,0,0,2.389,0c.463-.175,2.1-.783,2.1-.783S741.09,1619.48,739.737,1618.884Z" transform="translate(-1869.338 -1695.092)"/><path class="b" d="M611.127,1618.884a2.192,2.192,0,0,0-2.389,0c-.463.175-2.1.782-2.1.782s.549.187,1.9.783a2.192,2.192,0,0,0,2.389,0c.463-.175,2.1-.783,2.1-.783S612.483,1619.48,611.127,1618.884Z" transform="translate(-1753.513 -1695.092)"/><path class="b" d="M546.827,1618.884a2.192,2.192,0,0,0-2.389,0c-.463.175-2.1.782-2.1.782s.549.187,1.9.783a2.192,2.192,0,0,0,2.389,0c.463-.175,2.1-.783,2.1-.783S548.183,1619.48,546.827,1618.884Z" transform="translate(-1695.605 -1695.092)"/><path class="b" d="M675.427,1674.1a2.192,2.192,0,0,0-2.389,0c-.463.175-2.1.782-2.1.782s.549.187,1.9.783a2.193,2.193,0,0,0,2.39,0c.464-.175,2.1-.783,2.1-.783S676.783,1674.7,675.427,1674.1Z" transform="translate(-1811.421 -1744.822)"/><path class="b" d="M611.127,1674.1a2.192,2.192,0,0,0-2.389,0c-.463.175-2.1.782-2.1.782s.549.187,1.9.783a2.192,2.192,0,0,0,2.389,0c.463-.175,2.1-.783,2.1-.783S612.483,1674.7,611.127,1674.1Z" transform="translate(-1753.513 -1744.822)"/><path class="b" d="M707.578,1646.494a2.193,2.193,0,0,0-2.39,0c-.464.175-2.1.782-2.1.782s.55.187,1.906.783a2.191,2.191,0,0,0,2.389,0c.463-.175,2.1-.783,2.1-.783S708.934,1647.09,707.578,1646.494Z" transform="translate(-1840.375 -1719.957)"/><path class="b" d="M643.277,1646.494a2.192,2.192,0,0,0-2.389,0c-.463.175-2.1.782-2.1.782s.549.187,1.9.783a2.193,2.193,0,0,0,2.39,0c.464-.175,2.1-.783,2.1-.783S644.633,1647.09,643.277,1646.494Z" transform="translate(-1782.467 -1719.957)"/><path class="b" d="M578.977,1646.494a2.192,2.192,0,0,0-2.389,0c-.463.175-2.1.782-2.1.782s.549.187,1.9.783a2.191,2.191,0,0,0,2.389,0c.463-.175,2.1-.783,2.1-.783S580.333,1647.09,578.977,1646.494Z" transform="translate(-1724.559 -1719.957)"/><path class="c" d="M0,116.176l17.17-4.553L7.007,108.23Z" transform="translate(-1172 -204.468)"/><path class="c" d="M80.781,168.911l-1.381.361-1.95-6.851,1.372-.391Z" transform="translate(-1241.751 -252.92)"/><path class="d" d="M610.293,1618.582a1.708,1.708,0,0,0-.386-.052,3.27,3.27,0,0,0-1.169.354c-.463.175-2.1.782-2.1.782s.506.173,1.742.712a16.431,16.431,0,0,0,1.913-1.8Z" transform="translate(-1753.513 -1695.092)"/><path class="d" d="M546.633,1620.45c.463-.176,2.1-.783,2.1-.783s-.549-.186-1.9-.782a2.192,2.192,0,0,0-2.389,0c-.463.175-2.1.782-2.1.782s.549.187,1.9.783a2.192,2.192,0,0,0,2.389,0Z" transform="translate(-1695.605 -1695.092)"/><path class="d" d="M577.758,1646.14a3.267,3.267,0,0,0-1.169.354c-.463.175-2.1.782-2.1.782s.265.09.882.345a16.428,16.428,0,0,0,2.748-1.434A1.659,1.659,0,0,0,577.758,1646.14Z" transform="translate(-1724.559 -1719.957)"/><path class="e" d="M324.086,140.96l-.126,1.871-.1,3.285,4.361,2.948-.977-2.579.7.608,2.819.545Z" transform="translate(-1463.665 -233.944)"/><path class="e" d="M380.4,154.83l-1.469,1.346L380.3,157.6l1.311.235,1.379,1.273,1.344-.113-.781-.843Z" transform="translate(-1513.261 -246.436)"/><path class="f" d="M582.921,1331.444a12.471,12.471,0,1,0-20.586.773l9.537-6.69,3.937,3.759,2.7-2.315Z" transform="translate(-1711.413 -1419.335)"/></g></svg>